<svg width="103" height="117" viewBox="0 0 103 117" fill="none" xmlns="http://www.w3.org/2000/svg">
<path d="M54.4586 3.97586L75.9475 16.1558L97.24 28.6757C99.0585 29.745 100.182 31.6907 100.199 33.8002L100.395 58.5L100.199 83.1998C100.182 85.3093 99.0585 87.255 97.24 88.3243L75.9476 100.844L54.4586 113.024C52.6234 114.064 50.3766 114.064 48.5414 113.024L27.0524 100.844L5.76001 88.3243C3.94153 87.255 2.81818 85.3093 2.80141 83.1998L2.60506 58.5L2.80141 33.8002C2.81818 31.6907 3.94153 29.745 5.76001 28.6757L27.0525 16.1558L48.5414 3.97586C50.3766 2.93564 52.6234 2.93564 54.4586 3.97586Z" fill="url(#paint0_linear_2272_665)" stroke="url(#paint1_linear_2272_665)" stroke-width="4"/>
<g clip-path="url(#clip0_2272_665)">
<path d="M40.2112 33.75H76.578V70.1167H49.5551C44.3982 70.1167 40.2112 65.9298 40.2112 60.773V33.75Z" fill="#E54DE5"/>
<path d="M26.75 47.3833H53.0522C58.6072 47.3833 63.1147 51.8929 63.1147 57.4459V83.7481H26.75V47.3833Z" fill="#16DBBE"/>
<path fill-rule="evenodd" clip-rule="evenodd" d="M63.0478 70.1169H49.488C44.3311 70.1169 40.1441 65.9299 40.1441 60.7731V47.3833H52.9853C58.54 47.3833 63.0478 51.8929 63.0478 57.4459V70.1169Z" fill="#FFC800"/>
<path fill-rule="evenodd" clip-rule="evenodd" d="M25.125 47.3833C25.125 46.4859 25.8525 45.7583 26.75 45.7583H53.0522C59.5047 45.7583 64.7397 50.9957 64.7397 57.4459V83.7481C64.7397 84.6456 64.0122 85.3731 63.1147 85.3731H26.75C25.8525 85.3731 25.125 84.6456 25.125 83.7481V47.3833ZM28.375 49.0083V82.1231H61.4897V57.4459C61.4897 52.7902 57.7095 49.0083 53.0522 49.0083H28.375Z" fill="#1D3843"/>
<path fill-rule="evenodd" clip-rule="evenodd" d="M38.5862 33.75C38.5862 32.8525 39.3138 32.125 40.2112 32.125H76.578C77.4755 32.125 78.203 32.8525 78.203 33.75V70.1167C78.203 71.0142 77.4755 71.7417 76.578 71.7417H49.5551C43.5007 71.7417 38.5862 66.8273 38.5862 60.773V33.75ZM41.8362 35.375V60.773C41.8362 65.0325 45.2956 68.4917 49.5551 68.4917H74.953V35.375H41.8362Z" fill="#1D3843"/>
<path fill-rule="evenodd" clip-rule="evenodd" d="M77.7197 68.9604C78.3585 69.5909 78.365 70.6199 77.7345 71.2584L64.2732 84.8916C63.6425 85.5301 62.6137 85.5369 61.975 84.9061C61.3365 84.2756 61.33 83.2469 61.9605 82.6081L75.4217 68.9749C76.0522 68.3364 77.0812 68.3299 77.7197 68.9604Z" fill="#1D3843"/>
<path fill-rule="evenodd" clip-rule="evenodd" d="M41.353 32.5937C41.9916 33.2242 41.9981 34.2531 41.3675 34.8917L27.9063 48.5249C27.2758 49.1636 26.2469 49.1701 25.6083 48.5395C24.9697 47.9089 24.9631 46.8801 25.5937 46.2415L39.0549 32.6083C39.6855 31.9697 40.7144 31.9631 41.353 32.5937Z" fill="#1D3843"/>
</g>
<defs>
<linearGradient id="paint0_linear_2272_665" x1="80" y1="102.5" x2="24" y2="13.5" gradientUnits="userSpaceOnUse">
<stop stop-color="#F8B9C4"/>
<stop offset="1" stop-color="#EFB44A"/>
</linearGradient>
<linearGradient id="paint1_linear_2272_665" x1="51.5" y1="0" x2="51.5" y2="117" gradientUnits="userSpaceOnUse">
<stop stop-color="#D05BDD"/>
<stop offset="1" stop-color="#E28983"/>
</linearGradient>
<clipPath id="clip0_2272_665">
<rect width="53.25" height="53.5" fill="white" transform="translate(25 32)"/>
</clipPath>
</defs>
</svg>
