<svg width="103" height="115" viewBox="0 0 103 115" fill="none" xmlns="http://www.w3.org/2000/svg">
<path d="M54.4586 2.97586L75.9475 15.1558L97.24 27.6757C99.0585 28.745 100.182 30.6907 100.199 32.8002L100.395 57.5L100.199 82.1998C100.182 84.3093 99.0585 86.255 97.24 87.3243L75.9476 99.8442L54.4586 112.024C52.6233 113.064 50.3767 113.064 48.5414 112.024L27.0525 99.8442L5.76001 87.3243C3.94153 86.255 2.81818 84.3093 2.80141 82.1998L2.60506 57.5L2.80141 32.8002C2.81818 30.6907 3.94152 28.745 5.76001 27.6757L27.0525 15.1558L48.5414 2.97586C50.3767 1.93564 52.6233 1.93564 54.4586 2.97586Z" fill="#81E6D9" stroke="#38B2AC" stroke-width="4"/>
</svg>
