<svg width="103" height="117" viewBox="0 0 103 117" fill="none" xmlns="http://www.w3.org/2000/svg">
<path d="M54.4586 3.97586L75.9475 16.1558L97.24 28.6757C99.0585 29.745 100.182 31.6907 100.199 33.8002L100.395 58.5L100.199 83.1998C100.182 85.3093 99.0585 87.255 97.24 88.3243L75.9476 100.844L54.4586 113.024C52.6234 114.064 50.3766 114.064 48.5414 113.024L27.0524 100.844L5.76001 88.3243C3.94153 87.255 2.81818 85.3093 2.80141 83.1998L2.60506 58.5L2.80141 33.8002C2.81818 31.6907 3.94153 29.745 5.76001 28.6757L27.0525 16.1558L48.5414 3.97586C50.3766 2.93564 52.6234 2.93564 54.4586 3.97586Z" fill="url(#paint0_linear_2272_699)" stroke="url(#paint1_linear_2272_699)" stroke-width="4"/>
<g clip-path="url(#clip0_2272_699)">
<path d="M57.9377 54.0466V54.2266V63.3313H67.5593V54.2266V54.0466H67.7393H74.6667H74.8467V54.2266V72.796V72.841L74.8255 72.8807L63.9307 93.301L63.879 93.3979L63.7691 93.3962L51.3361 93.2084H51.3306L38.8975 93.3962L38.7877 93.3979L38.736 93.301L27.8412 72.8807L27.82 72.841V72.796V54.2266V54.0466H28H34.8958H35.0758V54.2266V63.3313H44.729V54.2266V54.0466H44.909H49.176V22.7842C49.176 21.4785 50.2345 20.4201 51.5402 20.4201C52.4566 20.4201 53.2508 20.9415 53.643 21.7031C54.2005 21.9298 54.7508 22.3181 55.295 22.7818C55.8604 23.2636 56.4302 23.8366 57.0028 24.4123L57.0058 24.4154C57.6901 25.1035 58.3791 25.796 59.0855 26.3643C59.7925 26.933 60.5036 27.3661 61.2278 27.5464L61.1843 27.7211L61.2279 27.5464C62.706 27.9146 63.7977 27.5258 65.0827 27.0643L65.0855 27.0632C66.4361 26.5781 67.9736 26.0259 70.3044 26.2875L70.3054 26.2876C72.0944 26.4981 73.0462 27.6704 74.0519 28.909L74.0684 28.9294L73.9287 29.0429L74.0684 28.9294C74.7463 29.7644 75.4557 30.6366 76.4718 31.3393C77.4839 32.0392 78.809 32.5762 80.72 32.7172L81.2214 32.7542L80.8105 33.0438L80.7861 33.0611L80.786 33.0611L80.78 33.0654C78.293 34.8216 74.8511 37.2521 69.513 36.7774M57.9377 54.0466H53.7242H53.9042M57.9377 54.0466H57.7577H53.9042M57.9377 54.0466H53.9042M69.513 36.7774C69.5129 36.7774 69.5127 36.7774 69.5126 36.7774L69.5285 36.5981L69.513 36.7774C69.513 36.7774 69.513 36.7774 69.513 36.7774ZM69.513 36.7774C67.8332 36.6325 66.6478 36.09 65.5346 35.5807L65.5292 35.5782C64.7334 35.214 63.9812 34.8706 63.0994 34.6831C62.2213 34.4965 61.2079 34.4637 59.8983 34.7354L59.8971 34.7357C57.0639 35.3041 55.6372 36.6405 54.5354 37.6728C54.317 37.8774 54.1084 38.0728 53.9042 38.2475M53.9042 38.2475V38.164H53.7242L53.8397 38.302C53.8612 38.2841 53.8827 38.2659 53.9042 38.2475ZM53.9042 38.2475V54.0466" fill="url(#paint2_linear_2272_699)" stroke="url(#paint3_linear_2272_699)" stroke-width="0.359999"/>
</g>
<defs>
<linearGradient id="paint0_linear_2272_699" x1="52" y1="116" x2="52" y2="1.14375e-06" gradientUnits="userSpaceOnUse">
<stop stop-color="#F1FBCF"/>
<stop offset="1" stop-color="#C7DAFB"/>
</linearGradient>
<linearGradient id="paint1_linear_2272_699" x1="51.5" y1="0" x2="51.5" y2="117" gradientUnits="userSpaceOnUse">
<stop stop-color="#8C95F8"/>
<stop offset="1" stop-color="#DEE0FA"/>
</linearGradient>
<linearGradient id="paint2_linear_2272_699" x1="54.3534" y1="20.6001" x2="54.3534" y2="93.2163" gradientUnits="userSpaceOnUse">
<stop stop-color="#2B3547"/>
<stop offset="1" stop-color="#375590"/>
</linearGradient>
<linearGradient id="paint3_linear_2272_699" x1="54.3534" y1="20.6001" x2="54.3534" y2="93.2163" gradientUnits="userSpaceOnUse">
<stop stop-color="#D3E4EF"/>
<stop offset="1" stop-color="#EFF9D2"/>
</linearGradient>
<clipPath id="clip0_2272_699">
<rect width="53.568" height="74.3039" fill="white" transform="translate(28 17)"/>
</clipPath>
</defs>
</svg>
