<svg width="103" height="117" viewBox="0 0 103 117" fill="none" xmlns="http://www.w3.org/2000/svg">
<path d="M54.4586 3.97586L75.9475 16.1558L97.24 28.6757C99.0585 29.745 100.182 31.6907 100.199 33.8002L100.395 58.5L100.199 83.1998C100.182 85.3093 99.0585 87.255 97.24 88.3243L75.9476 100.844L54.4586 113.024C52.6234 114.064 50.3766 114.064 48.5414 113.024L27.0524 100.844L5.76001 88.3243C3.94153 87.255 2.81818 85.3093 2.80141 83.1998L2.60506 58.5L2.80141 33.8002C2.81818 31.6907 3.94153 29.745 5.76001 28.6757L27.0525 16.1558L48.5414 3.97586C50.3766 2.93564 52.6234 2.93564 54.4586 3.97586Z" fill="url(#paint0_linear_2272_688)" stroke="url(#paint1_linear_2272_688)" stroke-width="4"/>
<g filter="url(#filter0_i_2272_688)">
<path d="M51.5 31C36.03 31 23.5 43.53 23.5 59C23.5 71.39 31.515 81.855 42.645 85.565C44.045 85.81 44.57 84.97 44.57 84.235C44.57 83.57 44.535 81.365 44.535 79.02C37.5 80.315 35.68 77.305 35.12 75.73C34.805 74.925 33.44 72.44 32.25 71.775C31.27 71.25 29.87 69.955 32.215 69.92C34.42 69.885 35.995 71.95 36.52 72.79C39.04 77.025 43.065 75.835 44.675 75.1C44.92 73.28 45.655 72.055 46.46 71.355C40.23 70.655 33.72 68.24 33.72 57.53C33.72 54.485 34.805 51.965 36.59 50.005C36.31 49.305 35.33 46.435 36.87 42.585C36.87 42.585 39.215 41.85 44.57 45.455C46.81 44.825 49.19 44.51 51.57 44.51C53.95 44.51 56.33 44.825 58.57 45.455C63.925 41.815 66.27 42.585 66.27 42.585C67.81 46.435 66.83 49.305 66.55 50.005C68.335 51.965 69.42 54.45 69.42 57.53C69.42 68.275 62.875 70.655 56.645 71.355C57.66 72.23 58.535 73.91 58.535 76.535C58.535 80.28 58.5 83.29 58.5 84.235C58.5 84.97 59.025 85.845 60.425 85.565C65.9838 83.689 70.8142 80.1167 74.2361 75.3512C77.658 70.5856 79.499 64.8668 79.5 59C79.5 43.53 66.97 31 51.5 31Z" fill="white"/>
</g>
<path d="M42.5976 85.7073L42.6082 85.7108L42.6191 85.7128C43.3519 85.841 43.8832 85.6887 44.232 85.3798C44.5771 85.0741 44.72 84.6354 44.72 84.235C44.72 84.0031 44.7158 83.5848 44.7102 83.0399C44.7078 82.8012 44.7052 82.5383 44.7025 82.2561C44.6937 81.3288 44.685 80.1918 44.685 79.02V78.8399L44.5078 78.8725C41.0116 79.5161 38.8367 79.0852 37.4727 78.3204C36.1105 77.5566 35.5339 76.4464 35.2613 75.6798L35.2614 75.6797L35.2597 75.6753C35.0974 75.2607 34.6719 74.4288 34.1385 73.6176C33.8712 73.2112 33.5749 72.8069 33.2685 72.4609C32.9634 72.1164 32.6419 71.8222 32.3232 71.644L32.3208 71.6428C32.0843 71.5161 31.8218 71.3424 31.598 71.1539C31.3707 70.9625 31.1978 70.7677 31.1221 70.6016C31.085 70.5202 31.0766 70.4571 31.0849 70.4098C31.0925 70.3666 31.1169 70.3196 31.1821 70.2717C31.3247 70.167 31.6347 70.0787 32.2172 70.07H32.2174C33.2707 70.0533 34.1817 70.538 34.9011 71.1418C35.6194 71.7446 36.1344 72.4562 36.392 72.8682C37.677 75.0267 39.3561 75.8139 40.925 75.9581C42.4844 76.1015 43.9208 75.6092 44.7373 75.2365L44.8126 75.2021L44.8237 75.12C45.0645 73.3306 45.7849 72.1409 46.5584 71.4682L46.8162 71.2441L46.4767 71.2059C43.3707 70.8569 40.2222 70.0825 37.8505 68.0816C35.4859 66.0868 33.87 62.8523 33.87 57.53C33.87 54.5236 34.9402 52.0393 36.7009 50.106L36.7642 50.0365L36.7293 49.9493C36.4594 49.2746 35.5008 46.4784 36.9806 42.7131C36.9887 42.7115 36.9975 42.7099 37.0071 42.7082C37.0751 42.6963 37.1811 42.6824 37.3263 42.6764C37.6166 42.6643 38.0645 42.6839 38.6807 42.8148C39.9134 43.0768 41.8207 43.785 44.4862 45.5794L44.5438 45.6182L44.6106 45.5994C46.8367 44.9733 49.203 44.66 51.57 44.66C53.937 44.66 56.3033 44.9733 58.5294 45.5994L58.5966 45.6183L58.6543 45.5791C61.3197 43.7673 63.2267 43.0594 64.4588 42.8018C65.0748 42.6731 65.5224 42.6567 65.8124 42.6714C65.9574 42.6787 66.0632 42.6938 66.1312 42.7065C66.1413 42.7084 66.1505 42.7102 66.159 42.7119C67.6394 46.4778 66.6806 49.2746 66.4107 49.9493L66.3758 50.0365L66.4391 50.106C68.2 52.0395 69.27 54.4888 69.27 57.53C69.27 62.8697 67.6454 66.104 65.2724 68.0945C62.8919 70.0911 59.7347 70.8569 56.6283 71.2059L56.2869 71.2443L56.5471 71.4686C57.5216 72.3088 58.385 73.9429 58.385 76.535C58.385 78.4071 58.3763 80.0954 58.3675 81.434C58.3646 81.8767 58.3617 82.2813 58.3591 82.6416C58.3539 83.3704 58.35 83.9184 58.35 84.235C58.35 84.6347 58.4924 85.0818 58.8372 85.3921C59.1867 85.7067 59.7198 85.859 60.4544 85.7121L60.4639 85.7102L60.473 85.7071C66.0615 83.8211 70.9177 80.2297 74.3579 75.4386C77.7981 70.6476 79.649 64.8982 79.65 59C79.65 43.4472 67.0528 30.85 51.5 30.85C35.9472 30.85 23.35 43.4472 23.35 59C23.35 71.4566 31.4083 81.9775 42.5976 85.7073Z" stroke="url(#paint2_linear_2272_688)" stroke-width="0.3"/>
<defs>
<filter id="filter0_i_2272_688" x="23.2" y="30.7002" width="56.6" height="56.2183" filterUnits="userSpaceOnUse" color-interpolation-filters="sRGB">
<feFlood flood-opacity="0" result="BackgroundImageFix"/>
<feBlend mode="normal" in="SourceGraphic" in2="BackgroundImageFix" result="shape"/>
<feColorMatrix in="SourceAlpha" type="matrix" values="0 0 0 0 0 0 0 0 0 0 0 0 0 0 0 0 0 0 127 0" result="hardAlpha"/>
<feOffset dy="1"/>
<feGaussianBlur stdDeviation="1"/>
<feComposite in2="hardAlpha" operator="arithmetic" k2="-1" k3="1"/>
<feColorMatrix type="matrix" values="0 0 0 0 0.0431373 0 0 0 0 0.0627451 0 0 0 0 0.0941176 0 0 0 0.4 0"/>
<feBlend mode="normal" in2="shape" result="effect1_innerShadow_2272_688"/>
</filter>
<linearGradient id="paint0_linear_2272_688" x1="41" y1="9.98473e-07" x2="71.5" y2="113.5" gradientUnits="userSpaceOnUse">
<stop stop-color="#AE97E5"/>
<stop offset="1" stop-color="#1F1BED"/>
</linearGradient>
<linearGradient id="paint1_linear_2272_688" x1="51.5" y1="0" x2="51.5" y2="117" gradientUnits="userSpaceOnUse">
<stop stop-color="#F2AAD4"/>
<stop offset="1" stop-color="#864BF1"/>
</linearGradient>
<linearGradient id="paint2_linear_2272_688" x1="51.5" y1="31" x2="51.5" y2="85.6185" gradientUnits="userSpaceOnUse">
<stop stop-color="#8678E3"/>
<stop offset="1" stop-color="#4038EC"/>
</linearGradient>
</defs>
</svg>
