<svg width="25" height="25" viewBox="0 0 25 25" fill="none" xmlns="http://www.w3.org/2000/svg">
<path d="M15.3894 2.09814C15.5057 2.09814 15.6163 2.14903 15.6931 2.23783L17.1805 3.95697C17.1989 3.95344 17.2181 3.9499 17.2379 3.94637C17.5961 3.88249 17.9653 3.85914 18.3198 3.90145C18.7726 3.95551 19.1599 4.11349 19.4479 4.4069C19.7486 4.71328 20.0479 5.02584 20.3319 5.32811C20.4314 5.43392 20.5218 5.53093 20.6016 5.61706C20.6296 5.64727 20.6543 5.67398 20.6754 5.69693C20.8091 5.84275 20.8399 6.01286 20.7805 6.16141L20.3967 7.12115L20.908 8.60964C20.9347 8.68719 20.9379 8.77108 20.9173 8.85051C20.9137 8.86456 20.9137 8.86456 20.8964 8.9313C20.8727 9.02265 20.8727 9.02265 20.8372 9.15969C20.7735 9.40567 20.7025 9.67982 20.626 9.97515C20.4076 10.8189 20.1891 11.6633 19.9852 12.4522C19.4818 14.3997 19.1518 15.6819 19.0724 16.0014C18.6398 17.7408 18.2967 18.3447 17.1875 19.1399C16.2158 19.8366 14.1881 21.2345 13.7982 21.4828C13.7609 21.5065 13.7197 21.5342 13.6652 21.5718C13.6439 21.5865 13.5409 21.6581 13.5114 21.6785C13.3219 21.8091 13.1867 21.8928 13.0409 21.9618C12.8562 22.0494 12.6793 22.0981 12.5 22.0981C12.3207 22.0981 12.1439 22.0494 11.9591 21.9618C11.8134 21.8928 11.6782 21.8091 11.4886 21.6785C11.4591 21.6581 11.3561 21.5865 11.3349 21.5718C11.2803 21.5342 11.2391 21.5065 11.2018 21.4828C10.812 21.2345 8.78425 19.8366 7.8125 19.1399C6.70332 18.3447 6.36019 17.7408 5.92768 16.0014C5.84823 15.6819 5.51819 14.3997 5.01854 12.4665C4.81096 11.6634 4.59248 10.819 4.37401 9.97518C4.29754 9.67984 4.22654 9.40568 4.16281 9.15969C4.12731 9.02265 4.12731 9.02265 4.10365 8.9313C4.08635 8.86455 4.08635 8.86455 4.08271 8.85051C4.06213 8.77107 4.06536 8.68719 4.092 8.60964L4.60335 7.12115L4.21957 6.16141C4.16017 6.01286 4.19093 5.84275 4.29839 5.72544C4.34574 5.67398 4.37041 5.64727 4.39839 5.61706C4.47819 5.53093 4.56867 5.43392 4.66811 5.32811C4.95218 5.02584 5.25139 4.71328 5.5521 4.4069C5.84009 4.11349 6.22744 3.95551 6.68028 3.90145C7.0347 3.85914 7.40393 3.88249 7.76216 3.94637C7.78196 3.9499 7.80111 3.95344 7.81959 3.95697L9.30691 2.23783C9.38374 2.14903 9.49439 2.09814 9.61066 2.09814H15.3894ZM15.2065 2.92169H9.79355L8.26907 4.68378C8.16652 4.8023 8.0064 4.85072 7.85689 4.8084C7.8491 4.8062 7.82964 4.80112 7.79994 4.79409C7.74781 4.78175 7.68816 4.76927 7.62246 4.75755C7.33515 4.70632 7.04025 4.68767 6.77459 4.71938C6.48789 4.75361 6.26741 4.84354 6.12476 4.98887C5.82854 5.29066 5.53332 5.59905 5.25306 5.89728C5.18686 5.96771 5.12473 6.03416 5.06718 6.09597L5.41066 6.95492C5.44781 7.04782 5.45036 7.15131 5.41784 7.24599L4.89689 8.76242C4.91103 8.81698 4.91618 8.83689 4.94543 8.94978C5.00916 9.1958 5.08017 9.47 5.15665 9.76537C5.37515 10.6093 5.59365 11.4538 5.79759 12.2428C6.30221 14.1952 6.63188 15.476 6.7123 15.7994C7.10142 17.3643 7.34914 17.8002 8.27867 18.4667C9.23937 19.1554 11.2564 20.546 11.6312 20.7847C11.6783 20.8147 11.7271 20.8474 11.7891 20.8902C11.8122 20.9061 11.9149 20.9776 11.9424 20.9966C12.0989 21.1044 12.2038 21.1693 12.3008 21.2152C12.3871 21.2562 12.454 21.2746 12.5 21.2746C12.5461 21.2746 12.6129 21.2562 12.6993 21.2152C12.7963 21.1693 12.9011 21.1044 13.0576 20.9966C13.0852 20.9776 13.1879 20.9061 13.2109 20.8902C13.273 20.8474 13.3217 20.8147 13.3689 20.7847C13.7437 20.546 15.7607 19.1554 16.7214 18.4667C17.6509 17.8002 17.8986 17.3643 18.2877 15.7994C18.3681 15.476 18.6978 14.1952 19.1988 12.257C19.4064 11.4537 19.6249 10.6092 19.8434 9.76533C19.9199 9.46997 19.9909 9.19578 20.0546 8.94977C20.0839 8.83688 20.089 8.81698 20.1032 8.76242L19.5822 7.24599C19.5497 7.15131 19.5522 7.04782 19.5894 6.95492L19.9329 6.09597C19.8753 6.03416 19.8132 5.96771 19.747 5.89728C19.4667 5.59905 19.1715 5.29066 18.8753 4.98887C18.7326 4.84354 18.5121 4.75361 18.2255 4.71938C17.9598 4.68767 17.6649 4.70632 17.3776 4.75755C17.3119 4.76927 17.2522 4.78175 17.2001 4.79409C17.1704 4.80112 17.1509 4.8062 17.1431 4.8084C16.9936 4.85072 16.8335 4.8023 16.731 4.68378L15.2065 2.92169ZM12.5 14.4437C12.61 14.4437 13.3148 14.6972 13.8803 14.9954C14.4458 15.2935 14.8557 15.5044 14.9867 15.5879C15.1177 15.6715 15.0378 15.829 14.9185 15.915C14.7991 16.0009 13.1955 17.266 13.0399 17.4059C12.8842 17.5457 12.6555 17.7767 12.5 17.7767C12.3445 17.7767 12.1158 17.5457 11.9601 17.4059C11.8045 17.266 10.2009 16.0009 10.0815 15.915C9.96219 15.829 9.88233 15.6715 10.0133 15.5879C10.1443 15.5044 10.5542 15.2935 11.1197 14.9954C11.6852 14.6972 12.39 14.4437 12.5 14.4437ZM12.5022 5.43266C12.531 5.43312 12.844 5.44161 13.3026 5.59736C13.7842 5.7609 14.3059 5.96533 14.5467 5.96533C14.7874 5.96533 16.5732 5.6178 16.5732 5.6178C16.5732 5.6178 18.6895 8.22423 18.6895 8.78129C18.6895 9.33835 18.4233 9.48538 18.1556 9.77497C17.888 10.0646 16.7189 11.3293 16.5688 11.4917C16.4187 11.6541 16.1061 11.9004 16.29 12.3436C16.4738 12.7869 16.745 13.3509 16.4434 13.9229C16.1418 14.495 15.6251 14.8768 15.2941 14.8137C14.963 14.7505 14.1855 14.3366 13.8996 14.1475C13.6136 13.9584 12.7074 13.1969 12.7074 12.9056C12.7074 12.6143 13.6442 12.0912 13.8172 11.9723C13.9903 11.8535 14.7797 11.3935 14.7959 11.213C14.812 11.0324 14.8059 10.9794 14.5729 10.5333C14.3399 10.0871 13.9204 9.49176 13.9902 9.09562C14.0601 8.69952 14.7367 8.49354 15.2195 8.30776C15.7023 8.12202 16.6319 7.77118 16.748 7.71664C16.8642 7.66206 16.8341 7.6101 16.4823 7.57612C16.1306 7.54215 15.1323 7.40714 14.6823 7.53495C14.2322 7.66276 13.4633 7.85721 13.401 7.96032C13.3387 8.06343 13.2838 8.06691 13.3478 8.42261C13.4117 8.77831 13.741 10.4851 13.7729 10.7883C13.8049 11.0914 13.8675 11.2918 13.5466 11.3666C13.2257 11.4413 12.6856 11.5711 12.5 11.5711C12.3144 11.5711 11.7743 11.4413 11.4534 11.3666C11.1325 11.2918 11.1951 11.0914 11.2271 10.7883C11.259 10.4851 11.5883 8.77831 11.6523 8.42261C11.7162 8.06691 11.6613 8.06343 11.599 7.96032C11.5367 7.85721 10.7678 7.66276 10.3177 7.53495C9.86769 7.40714 8.86945 7.54215 8.51767 7.57612C8.16589 7.6101 8.13588 7.66206 8.25201 7.71664C8.36815 7.77118 9.29776 8.12202 9.78053 8.30776C10.2633 8.49354 10.94 8.69952 11.0098 9.09562C11.0796 9.49176 10.6601 10.0871 10.4271 10.5333C10.1942 10.9794 10.188 11.0324 10.2042 11.213C10.2203 11.3935 11.0097 11.8535 11.1828 11.9723C11.3559 12.0912 12.2926 12.6143 12.2926 12.9056C12.2926 13.1969 11.3864 13.9584 11.1005 14.1475C10.8146 14.3366 10.037 14.7505 9.70597 14.8137C9.37489 14.8768 8.85822 14.495 8.5566 13.9229C8.25502 13.3509 8.52622 12.7869 8.71002 12.3436C8.89385 11.9004 8.58136 11.6541 8.43119 11.4917C8.28111 11.3293 7.11204 10.0646 6.84437 9.77497C6.5767 9.48538 6.31052 9.33835 6.31052 8.78129C6.31052 8.22423 8.42682 5.6178 8.42682 5.6178C8.42682 5.6178 10.2126 5.96533 10.4534 5.96533C10.6942 5.96533 11.2159 5.7609 11.6974 5.59736C12.179 5.43382 12.5 5.43263 12.5 5.43263L12.5022 5.43266Z" fill="white" fill-opacity="0.8"/>
</svg>
