<?xml version="1.0" encoding="utf-8"?>
<svg width="24" height="20" viewBox="0 0 65.124 77.026" fill="none" xmlns="http://www.w3.org/2000/svg">
  <defs/>
  <path d="M64.5251 27.5084V77.0593H43.7966V62.467C43.7966 56.0558 38.6019 50.858 32.2193 50.858C25.8366 50.858 20.6419 56.0558 20.6419 62.467V77.0593H0V27.5084H12.0807V34.6679C12.0807 37.732 14.5673 40.2096 17.6177 40.2096C20.6681 40.2096 23.1547 37.732 23.1547 34.6679V27.5084H41.2758V34.6376C41.2758 37.7017 43.7624 40.1792 46.8128 40.1792C49.8631 40.1792 52.3497 37.7017 52.3497 34.6376V27.5084H64.5251Z" fill="#FFFCFC"/>
  <path d="M29.4038 1.39V32.1367H34.7906V18.3518C34.7906 18.3518 36.167 15.5205 41.185 16.7694C47.8253 18.4223 56.0062 17.3022 61.258 7.79699C45.3435 13.0386 44.9172 -4.97368 29.4038 1.39Z" fill="#FFFCFC"/>
</svg>