<svg width="63" height="78" xmlns="http://www.w3.org/2000/svg" fill="white">

 <g>
  <title>Layer 1</title>
  <path id="svg_1" fill="#182232" d="m111.154,51.8617c-0.304,-0.1148 -0.346,-0.2661 -0.346,-0.3952c0,-0.2087 0.051,-0.2661 0.087,-0.3091c0.035,-0.0509 0.136,-0.1579 0.44,-0.3092c4.003,-2.2618 6.038,-5.6218 6.038,-9.9732c0,-4.3514 -1.407,-7.4311 -4.185,-9.7437c-2.763,-2.3401 -6.515,-3.5323 -11.161,-3.5323l-19.0407,0l0,48.5306l19.0257,0c4.82,0 8.672,-1.1921 11.428,-3.5322c2.822,-2.3557 4.249,-5.7445 4.249,-10.0802c0,-5.3414 -2.2,-8.9324 -6.543,-10.662l0.008,0.0065zm-3.29,-5.284c-1.457,1.1126 -3.651,1.6735 -6.515,1.6735l-11.0898,0l0,-14.0794l11.0898,0c2.864,0 5.058,0.5596 6.522,1.6735c1.478,1.0918 2.229,2.8931 2.229,5.3636c0,2.4705 -0.749,4.2718 -2.229,5.3636l-0.007,0.0052zm-17.6048,8.2424l11.0898,0c3.045,0 5.346,0.5817 6.854,1.7374c1.479,1.0918 2.229,2.987 2.229,5.6297c0,2.6426 -0.75,4.5666 -2.229,5.6936c-1.501,1.1126 -3.809,1.6735 -6.854,1.6735l-11.0898,0l0,-14.7408l0,0.0066z"/>
  <path id="svg_2" fill="#182232" d="m149.226,59.1923c0,3.9927 -0.924,7.0436 -2.736,9.068c-1.76,1.967 -4.35,2.9649 -7.683,2.9649c-2.936,0 -5.209,-0.797 -6.754,-2.3766c-1.545,-1.5796 -2.33,-3.934 -2.33,-6.9928l0,-20.9365l-6.602,0l0,21.9357c0,4.5014 1.291,8.0415 3.831,10.5263c2.54,2.4848 6.075,3.7475 10.513,3.7475c4.797,0 8.519,-1.6305 11.045,-4.8106l0.332,-0.33c0.072,-0.0717 0.145,-0.1148 0.195,-0.1148c0.151,0 0.18,0.0287 0.18,0.18l0,4.0854l6.602,0l0,-35.2182l-6.602,0l0,18.273l0.009,0l0,-0.0013z"/>
  <path id="svg_3" fill="#182232" d="m169.903,40.9193l-6.602,0l0,35.2103l6.602,0l0,-35.2103z"/>
  <path id="svg_4" fill="#182232" d="m166.599,27.4777c-2.331,0 -4.229,1.8887 -4.229,4.2144l0,0.2661c0,2.3192 1.898,4.2144 4.229,4.2144c2.33,0 4.228,-1.8887 4.228,-4.2144l0,-0.2661c0,-2.3179 -1.898,-4.2144 -4.228,-4.2144z"/>
  <path id="svg_5" fill="#182232" d="m205.162,45.0046c0,0.2439 -0.072,0.2439 -0.181,0.2439c-0.064,0 -0.252,0 -0.513,-0.3665c-2.763,-3.2962 -6.717,-4.9684 -11.73,-4.9684c-2.981,0 -5.816,0.7031 -8.434,2.0962c-2.626,1.35 -4.804,3.4461 -6.471,6.2401c-1.624,2.7861 -2.446,6.2388 -2.446,10.2681c0,4.0279 0.822,7.4818 2.452,10.2745c1.667,2.7862 3.846,4.9045 6.472,6.3041c2.619,1.35 5.454,2.0322 8.433,2.0322c5.022,0 8.968,-1.6735 11.747,-4.9827c0.245,-0.3444 0.439,-0.3444 0.504,-0.3444c0.101,0 0.18,0 0.18,0.244l0,4.0852l6.602,0l0,-48.5306l-6.602,0l0,17.4043l-0.013,0zm-2.93,4.2001c2.164,2.1966 3.261,5.3349 3.261,9.3198c0,3.9849 -1.097,7.1519 -3.267,9.3915c-2.121,2.1965 -4.978,3.3105 -8.492,3.3105c-3.513,0 -6.399,-1.1126 -8.556,-3.3027c-2.121,-2.2396 -3.204,-5.4066 -3.204,-9.3915c0,-3.9849 1.075,-7.1297 3.197,-9.3263c2.164,-2.2396 5.042,-3.3744 8.556,-3.3744c3.513,0 6.37,1.1348 8.492,3.3744l0.013,0l0,-0.0013z"/>
  <path id="svg_6" fill="#182232" d="m225.781,27.6003l-6.602,0l0,48.5306l6.602,0l0,-48.5306z"/>
  <path id="svg_7" fill="#182232" d="m248.652,35.527c2.618,-1.5653 5.7,-2.3557 9.156,-2.3557c4.675,0 8.253,1.1635 10.641,3.4462c2.39,2.2904 3.782,5.4131 4.128,9.2767l0.022,0.2582l7.257,0l-0.014,-0.3013c-0.136,-3.317 -1.025,-6.4697 -2.648,-9.3836c-1.624,-2.9218 -4.098,-5.3128 -7.337,-7.1011c-3.197,-1.8378 -7.142,-2.7718 -11.724,-2.7718c-4.978,0 -9.415,1.0631 -13.188,3.1671c-3.781,2.0609 -6.746,5.0336 -8.817,8.8384c-2.021,3.7984 -3.045,8.2567 -3.045,13.2538c0,4.997 1.003,9.4567 2.979,13.2538c2.028,3.8048 4.972,6.8062 8.752,8.9102c3.773,2.053 8.253,3.1017 13.326,3.1017c6.427,0 11.514,-1.6591 15.121,-4.9396c3.658,-3.2818 5.519,-7.8628 5.519,-13.5994l0,-5.0193l-24.941,0l0,6.5702l17.67,0c-0.066,3.1018 -1.134,5.6218 -3.181,7.4962c-2.122,1.9383 -5.433,2.9218 -9.841,2.9218c-3.766,0 -7.057,-0.7683 -9.762,-2.2905c-2.705,-1.5652 -4.805,-3.7696 -6.24,-6.5414c-1.4,-2.8357 -2.114,-6.1528 -2.114,-9.865c0,-3.7123 0.728,-6.9576 2.178,-9.7933c1.443,-2.8214 3.5,-5.0257 6.118,-6.5414l-0.015,0.0091z"/>
  <path id="svg_8" fill="#182232" d="m310.707,59.1923c0,3.9927 -0.924,7.0436 -2.734,9.068c-1.76,1.967 -4.35,2.9649 -7.685,2.9649c-2.943,0 -5.208,-0.797 -6.752,-2.3766c-1.544,-1.5796 -2.331,-3.934 -2.331,-6.9928l0,-20.9365l-6.602,0l0,21.9357c0,4.5014 1.291,8.0415 3.839,10.5263c2.541,2.4848 6.075,3.7475 10.512,3.7475c4.799,0 8.527,-1.6305 11.045,-4.8106l0.333,-0.33c0.072,-0.0717 0.144,-0.1148 0.194,-0.1148c0.152,0 0.181,0.0287 0.181,0.18l0,4.0854l6.602,0l0,-35.2182l-6.602,0l0,18.2717z"/>
  <path id="svg_9" fill="#182232" d="m331.384,40.9193l-6.602,0l0,35.2103l6.602,0l0,-35.2103z"/>
  <path id="svg_10" fill="#182232" d="m328.08,27.4777c-2.33,0 -4.236,1.8887 -4.236,4.2144l0,0.2661c0,2.3192 1.898,4.2144 4.236,4.2144c2.337,0 4.235,-1.8887 4.235,-4.2144l0,-0.2661c-0.001,-2.3179 -1.898,-4.2144 -4.235,-4.2144z"/>
  <path id="svg_11" fill="#182232" d="m366.642,45.0046c0,0.2439 -0.072,0.2439 -0.181,0.2439c-0.064,0 -0.252,0 -0.513,-0.3665c-2.763,-3.2962 -6.716,-4.9684 -11.73,-4.9684c-2.979,0 -5.814,0.7031 -8.433,2.0962c-2.627,1.35 -4.805,3.4461 -6.472,6.2401c-1.623,2.7861 -2.446,6.2388 -2.446,10.2681c0,4.0279 0.823,7.4818 2.454,10.2745c1.665,2.7862 3.845,4.9045 6.47,6.3041c2.619,1.35 5.454,2.0322 8.435,2.0322c5.021,0 8.967,-1.6735 11.745,-4.9827c0.245,-0.3444 0.44,-0.3444 0.504,-0.3444c0.101,0 0.181,0 0.181,0.244l0,4.0852l6.602,0l0,-48.5306l-6.602,0l0,17.4043l-0.014,0zm-2.928,4.2001c2.164,2.1966 3.261,5.3349 3.261,9.3198c0,3.9849 -1.097,7.1519 -3.269,9.3915c-2.121,2.1965 -4.978,3.3105 -8.491,3.3105c-3.514,0 -6.4,-1.1126 -8.557,-3.3027c-2.121,-2.2396 -3.204,-5.4066 -3.204,-9.3915c0,-3.9849 1.077,-7.1297 3.197,-9.3263c2.164,-2.2396 5.044,-3.3744 8.556,-3.3744c3.514,0 6.372,1.1348 8.492,3.3744l0.015,0l0,-0.0013z"/>
  <path id="svg_12" fill="#182232" d="m387.263,27.6003l-6.602,0l0,48.5306l6.602,0l0,-48.5306z"/>
  <path id="svg_13" fill="#182232" d="m63.1218,27.7353l0,48.4733l-20.2777,0l0,-14.2749c0,-6.2719 -5.0817,-11.3566 -11.3256,-11.3566c-6.2438,0 -11.3255,5.0847 -11.3255,11.3566l0,14.2749l-20.193,0l0,-48.4733l11.818,0l0,7.0039c0,2.9974 2.4325,5.4211 5.4165,5.4211c2.9841,0 5.4166,-2.4237 5.4166,-5.4211l0,-7.0039l17.727,0l0,6.9742c0,2.9974 2.4325,5.4211 5.4166,5.4211c2.984,0 5.4165,-2.4237 5.4165,-5.4211l0,-6.9742l11.9106,0z"/>
  <path id="svg_14" fill="#182232" d="m28.7643,2.18495l0,30.07805l5.2696,0l0,-13.4852c0,0 1.3465,-2.7697 6.2554,-1.5479c6.4958,1.6169 14.4988,0.5212 19.6364,-8.77731c-15.5684,5.12761 -15.9854,-12.49293 -31.1614,-6.26764z"/>
 </g>
</svg>