<svg width="21" height="21" viewBox="0 0 21 21" fill="none" xmlns="http://www.w3.org/2000/svg">
<path d="M10.5 18.0981L13.96 12.0981H13.95C14.29 11.4981 14.5 10.8281 14.5 10.0981C14.5 8.89814 13.96 7.82814 13.12 7.09814H17.91C18.29 8.02814 18.5 9.03815 18.5 10.0981C18.5 12.2199 17.6571 14.2547 16.1569 15.755C14.6566 17.2553 12.6217 18.0981 10.5 18.0981ZM2.5 10.0981C2.5 8.63814 2.89 7.27814 3.57 6.09814L7.04 12.0981H7.05C7.74 13.2881 9 14.0981 10.5 14.0981C10.95 14.0981 11.38 14.0081 11.79 13.8681L9.39 18.0081C5.5 17.4681 2.5 14.1381 2.5 10.0981ZM13.5 10.0981C13.5 10.8938 13.1839 11.6569 12.6213 12.2195C12.0587 12.7821 11.2956 13.0981 10.5 13.0981C9.70435 13.0981 8.94129 12.7821 8.37868 12.2195C7.81607 11.6569 7.5 10.8938 7.5 10.0981C7.5 9.3025 7.81607 8.53943 8.37868 7.97682C8.94129 7.41421 9.70435 7.09814 10.5 7.09814C11.2956 7.09814 12.0587 7.41421 12.6213 7.97682C13.1839 8.53943 13.5 9.3025 13.5 10.0981ZM10.5 2.09814C13.46 2.09814 16.04 3.70814 17.42 6.09814H10.5C8.56 6.09814 6.95 7.47814 6.58 9.30814L4.2 5.17814C5.66 3.30814 7.94 2.09814 10.5 2.09814ZM10.5 0.0981445C9.18678 0.0981445 7.88642 0.356802 6.67317 0.859349C5.45991 1.3619 4.35752 2.09849 3.42893 3.02708C1.55357 4.90244 0.5 7.44598 0.5 10.0981C0.5 12.7503 1.55357 15.2938 3.42893 17.1692C4.35752 18.0978 5.45991 18.8344 6.67317 19.3369C7.88642 19.8395 9.18678 20.0981 10.5 20.0981C13.1522 20.0981 15.6957 19.0446 17.5711 17.1692C19.4464 15.2938 20.5 12.7503 20.5 10.0981C20.5 8.78493 20.2413 7.48457 19.7388 6.27131C19.2362 5.05805 18.4997 3.95566 17.5711 3.02708C16.6425 2.09849 15.5401 1.3619 14.3268 0.859349C13.1136 0.356802 11.8132 0.0981445 10.5 0.0981445Z" fill="white" fill-opacity="0.8"/>
</svg>
