<svg width="35" height="35" viewBox="0 0 35 35" fill="none" xmlns="http://www.w3.org/2000/svg">
<path fill-rule="evenodd" clip-rule="evenodd" d="M19.4352 0.468092C18.334 -0.15604 16.986 -0.15604 15.8848 0.468092L9.83 3.89997L3.83048 7.42768C2.73939 8.06924 2.06538 9.23666 2.05532 10.5023L2 17.4619L2.05532 24.4215C2.06538 25.6872 2.73939 26.8546 3.83048 27.4962L9.83 31.0239L15.8848 34.4558C16.4228 34.7607 17.0196 34.9166 17.6178 34.9236C17.4531 32.4163 16.6024 21.9123 13.8003 19.7119C12.3644 18.5847 6.5 19.7119 6.5 19.7119C11.4239 12.426 17.6488 3.96193 17.6488 3.96193C17.6488 3.96193 23.8763 12.4242 28.8006 19.7119C28.8006 19.7119 22.9335 18.5847 21.4976 19.7119C18.6951 21.9127 17.8465 32.4169 17.6823 34.9238C18.2872 34.9201 18.8913 34.764 19.4352 34.4558L25.49 31.0239L31.4895 27.4962C32.5806 26.8546 33.2546 25.6872 33.2647 24.4215L33.32 17.4619L33.2647 10.5023C33.2546 9.23666 32.5806 8.06923 31.4895 7.42768L25.49 3.89997L19.4352 0.468092Z" fill="white"/>
</svg>
