<svg width="11" height="8" viewBox="0 0 11 8" fill="none" xmlns="http://www.w3.org/2000/svg">
<path fill-rule="evenodd" clip-rule="evenodd" d="M5.26562 7.7656C5.1156 7.91557 4.91216 7.99983 4.70002 7.99983C4.48789 7.99983 4.28445 7.91557 4.13442 7.7656L0.934425 4.5656C0.784448 4.41557 0.700195 4.21213 0.700195 4C0.700195 3.78786 0.784448 3.58442 0.934425 3.4344L4.13442 0.234396C4.28531 0.08867 4.48739 0.00803417 4.69715 0.0098569C4.9069 0.0116796 5.10755 0.095815 5.25588 0.244141C5.40421 0.392468 5.48834 0.593118 5.49016 0.802875C5.49199 1.01263 5.41135 1.21471 5.26562 1.3656L3.43122 3.2H9.50002C9.7122 3.2 9.91568 3.28428 10.0657 3.43431C10.2157 3.58434 10.3 3.78782 10.3 4C10.3 4.21217 10.2157 4.41565 10.0657 4.56568C9.91568 4.71571 9.7122 4.8 9.50002 4.8H3.43122L5.26562 6.6344C5.4156 6.78442 5.49985 6.98786 5.49985 7.2C5.49985 7.41213 5.4156 7.61557 5.26562 7.7656Z" fill="#E2E8F0"/>
</svg>
