<svg width="20" height="20" viewBox="0 0 20 20" fill="none" xmlns="http://www.w3.org/2000/svg">
<path fill-rule="evenodd" clip-rule="evenodd" d="M13.1032 3.5032C13.3246 3.27398 13.5894 3.09114 13.8822 2.96536C14.175 2.83958 14.49 2.77337 14.8086 2.7706C15.1273 2.76783 15.4433 2.82856 15.7383 2.94923C16.0332 3.0699 16.3012 3.24811 16.5265 3.47345C16.7519 3.6988 16.9301 3.96676 17.0508 4.26171C17.1714 4.55666 17.2322 4.87269 17.2294 5.19136C17.2266 5.51004 17.1604 5.82496 17.0346 6.11777C16.9088 6.41058 16.726 6.67541 16.4968 6.8968L12.8968 10.4968C12.4467 10.9467 11.8364 11.1995 11.2 11.1995C10.5636 11.1995 9.95325 10.9467 9.50319 10.4968C9.27687 10.2782 8.97374 10.1573 8.65911 10.16C8.34447 10.1627 8.04349 10.2889 7.821 10.5114C7.59852 10.7339 7.47231 11.0349 7.46958 11.3495C7.46684 11.6642 7.5878 11.9673 7.80639 12.1936C8.70652 13.0935 9.9272 13.599 11.2 13.599C12.4728 13.599 13.6935 13.0935 14.5936 12.1936L18.1936 8.5936C19.0679 7.68831 19.5518 6.47582 19.5408 5.21728C19.5299 3.95873 19.0251 2.75483 18.1351 1.86487C17.2452 0.974913 16.0413 0.470102 14.7827 0.459166C13.5242 0.448229 12.3117 0.932042 11.4064 1.8064L9.60639 3.6064C9.49177 3.7171 9.40036 3.84951 9.33747 3.99592C9.27458 4.14232 9.24147 4.29978 9.24009 4.45912C9.2387 4.61846 9.26906 4.77647 9.3294 4.92395C9.38974 5.07142 9.47884 5.2054 9.59151 5.31808C9.70418 5.43075 9.83817 5.51985 9.98564 5.58019C10.1331 5.64052 10.2911 5.67089 10.4505 5.6695C10.6098 5.66812 10.7673 5.63501 10.9137 5.57212C11.0601 5.50923 11.1925 5.41781 11.3032 5.3032L13.1032 3.5032ZM7.10319 9.5032C7.55325 9.05327 8.16359 8.80051 8.79999 8.80051C9.43638 8.80051 10.0467 9.05327 10.4968 9.5032C10.6075 9.61782 10.7399 9.70923 10.8863 9.77212C11.0327 9.83501 11.1902 9.86812 11.3495 9.8695C11.5088 9.87089 11.6669 9.84053 11.8143 9.78019C11.9618 9.71985 12.0958 9.63075 12.2085 9.51808C12.3211 9.40541 12.4102 9.27142 12.4706 9.12395C12.5309 8.97647 12.5613 8.81846 12.5599 8.65912C12.5585 8.49979 12.5254 8.34232 12.4625 8.19592C12.3996 8.04951 12.3082 7.9171 12.1936 7.8064C11.2935 6.90654 10.0728 6.40103 8.79999 6.40103C7.5272 6.40103 6.30652 6.90654 5.40639 7.8064L1.80639 11.4064C1.34794 11.8492 0.982263 12.3788 0.7307 12.9645C0.479137 13.5501 0.346723 14.1799 0.341185 14.8173C0.335646 15.4546 0.457095 16.0867 0.698443 16.6766C0.939791 17.2665 1.29621 17.8024 1.74689 18.2531C2.19758 18.7038 2.73351 19.0602 3.32341 19.3015C3.91331 19.5429 4.54537 19.6643 5.18271 19.6588C5.82005 19.6533 6.44991 19.5209 7.03553 19.2693C7.62115 19.0177 8.1508 18.6521 8.59359 18.1936L10.3936 16.3936C10.5082 16.2829 10.5996 16.1505 10.6625 16.0041C10.7254 15.8577 10.7585 15.7002 10.7599 15.5409C10.7613 15.3815 10.7309 15.2235 10.6706 15.0761C10.6102 14.9286 10.5211 14.7946 10.4085 14.6819C10.2958 14.5693 10.1618 14.4802 10.0143 14.4198C9.86686 14.3595 9.70884 14.3291 9.54951 14.3305C9.39017 14.3319 9.23271 14.365 9.0863 14.4279C8.9399 14.4908 8.80748 14.5822 8.69679 14.6968L6.89679 16.4968C6.67539 16.726 6.41057 16.9089 6.11776 17.0346C5.82495 17.1604 5.51002 17.2266 5.19135 17.2294C4.87268 17.2322 4.55665 17.1714 4.2617 17.0508C3.96675 16.9301 3.69878 16.7519 3.47344 16.5266C3.2481 16.3012 3.06989 16.0332 2.94921 15.7383C2.82854 15.4433 2.76782 15.1273 2.77059 14.8086C2.77336 14.49 2.83956 14.175 2.96534 13.8822C3.09113 13.5894 3.27396 13.3246 3.50319 13.1032L7.10319 9.5032Z" fill="white" fill-opacity="0.64"/>
</svg>
