<svg width="67" height="16" viewBox="0 0 67 16" fill="none" xmlns="http://www.w3.org/2000/svg">
<path d="M27.8587 9.75177L32.3011 15.6717H35.6794L30.2991 8.62138C30.0072 8.23108 29.8819 7.94273 29.8819 7.65508C29.8819 7.36744 30.0696 7.10005 30.4238 6.70969L35.5752 0.974737H32.1757L27.7964 5.86699C27.1291 6.62735 26.816 7.16213 26.816 7.67599C26.816 8.33368 27.1914 8.86786 27.8587 9.75177ZM51.32 8.354C51.32 4.07889 54.344 0.687073 58.8487 0.687073C63.3531 0.687073 66.4816 3.89387 66.4816 8.354C66.4816 12.8141 63.2701 15.9594 58.8699 15.9594C54.157 15.9594 51.3206 12.7121 51.3206 8.354H51.32ZM63.5616 8.33368C63.5616 5.33285 61.7058 3.1126 58.8693 3.1126C56.0329 3.1126 54.2393 5.29166 54.2393 8.33368C54.2393 11.3758 56.1576 13.5751 58.8693 13.5751C61.7264 13.5751 63.5616 11.3143 63.5616 8.33368ZM43.1239 15.6717H37.8478V13.2462H43.6453C45.3136 13.2462 46.1685 12.8148 46.1685 11.6634C46.1685 10.6357 45.5013 10.3068 43.687 9.8132L41.9564 9.34056C38.7241 8.45659 37.6395 7.42886 37.6395 5.00334C37.6395 2.57781 39.0995 0.974737 42.6237 0.974737H47.8998V3.44145H42.582C41.1014 3.44145 40.3711 3.77031 40.3711 4.81832C40.3711 5.80488 41.0384 6.27757 42.7485 6.70904L44.5421 7.16148C47.5449 7.92182 48.9631 8.99078 48.9631 11.3751C48.9631 14.1295 47.4196 15.6711 43.1239 15.6711V15.6717ZM17.1181 16.0006C13.302 16.0006 11.0076 13.9863 11.0076 10.0401V0.995658H13.8021V9.87469C13.8021 12.0125 14.4907 13.5744 17.1181 13.5744C19.7456 13.5744 20.4341 12.1152 20.4341 9.85378V0.974737H23.2287V10.0192C23.2287 13.9248 20.9349 16.0006 17.1181 16.0006ZM3.33353 0.995658H0.518372V12.8762C0.518372 14.8493 1.35284 15.6717 3.04167 15.6717H8.48491V13.2671H4.39751C3.58427 13.2671 3.3342 13.0207 3.3342 12.2394V0.995658H3.33353Z" fill="white" fill-opacity="0.8"/>
</svg>
