<svg width="11" height="8" viewBox="0 0 11 8" fill="none" xmlns="http://www.w3.org/2000/svg">
<path fill-rule="evenodd" clip-rule="evenodd" d="M5.7346 0.234412C5.88462 0.0844355 6.08806 0.000183105 6.3002 0.000183105C6.51233 0.000183105 6.71577 0.0844355 6.8658 0.234412L10.0658 3.43441C10.2158 3.58443 10.3 3.78788 10.3 4.00001C10.3 4.21214 10.2158 4.41559 10.0658 4.56561L6.8658 7.76561C6.71491 7.91134 6.51283 7.99197 6.30308 7.99015C6.09332 7.98833 5.89267 7.90419 5.74434 7.75587C5.59601 7.60754 5.51188 7.40689 5.51006 7.19713C5.50823 6.98738 5.58887 6.78529 5.7346 6.63441L7.569 4.80001H1.5002C1.28802 4.80001 1.08454 4.71573 0.93451 4.5657C0.784481 4.41567 0.700195 4.21219 0.700195 4.00001C0.700195 3.78784 0.784481 3.58436 0.93451 3.43433C1.08454 3.2843 1.28802 3.20001 1.5002 3.20001H7.569L5.7346 1.36561C5.58462 1.21559 5.50037 1.01214 5.50037 0.800012C5.50037 0.587881 5.58462 0.384435 5.7346 0.234412Z" fill="#1A202C"/>
</svg>
