<svg width="215" height="80" viewBox="0 0 215 80" fill="none" xmlns="http://www.w3.org/2000/svg">
<path d="M31.7875 1.25445C34.2925 -0.165381 37.3591 -0.165382 39.8641 1.25444L53.6381 9.06157L67.2863 17.0867C69.7684 18.5461 71.3017 21.2019 71.3246 24.0812L71.4505 39.9134L71.3246 55.7456C71.3017 58.6249 69.7684 61.2807 67.2863 62.7402L53.6381 70.7653L39.8641 78.5724C38.6268 79.2737 37.2525 79.6286 35.8766 79.6371C36.2501 73.9342 38.1805 50.0384 44.5559 45.0319C47.8225 42.4675 61.1695 45.0319 61.1695 45.0319C49.9672 28.4531 35.8002 9.20251 35.8002 9.20251C35.8002 9.20251 21.6394 28.4572 10.4381 45.0319C10.4381 45.0319 23.779 42.4675 27.0456 45.0319C33.4199 50.0374 35.3551 73.9329 35.7298 79.6367C34.369 79.6207 33.0112 79.266 31.7875 78.5724L18.0135 70.7653L4.36531 62.7402C1.88321 61.2807 0.349911 58.6249 0.327023 55.7456L0.201172 39.9134L0.327023 24.0812C0.349911 21.2019 1.8832 18.5461 4.3653 17.0867L18.0135 9.06157L31.7875 1.25445Z" fill="black"/>
<path fill-rule="evenodd" clip-rule="evenodd" d="M137.178 55.8375V23.7803H149.796C159.327 23.7803 164.836 29.5342 164.836 39.5756V39.6201C164.836 49.9725 159.393 55.8375 149.796 55.8375H137.178ZM143.887 50.3058H148.73C154.661 50.3058 157.994 46.5736 157.994 39.7311V39.6867C157.994 33.0887 154.55 29.312 148.73 29.312H143.887V50.3058Z" fill="black"/>
<path fill-rule="evenodd" clip-rule="evenodd" d="M167.093 43.6411C167.093 51.4832 171.603 56.3484 179.045 56.3484C186.199 56.3484 189.353 52.2163 190.109 49.1506L190.153 48.9284H184.11L184.044 49.0617C183.599 49.9948 182.022 51.5054 179.178 51.5054C175.735 51.5054 173.58 49.1728 173.513 45.1518H190.353V43.1301C190.353 35.7323 185.91 30.8449 178.779 30.8449C171.647 30.8449 167.093 35.8434 167.093 43.6189V43.6411ZM173.58 41.0863C173.98 37.6207 176.068 35.7101 178.89 35.7101C181.711 35.7101 183.733 37.5318 184.133 41.0863H173.58Z" fill="black"/>
<path d="M190.611 31.3781L199.119 55.8375H206.406L214.87 31.3781H208.05L203.029 49.7726H202.629L197.564 31.3781H190.611Z" fill="black"/>
<path fill-rule="evenodd" clip-rule="evenodd" d="M109.35 31.3781V63.9462H115.837V51.9275H116.237C117.481 54.5934 120.214 56.2151 123.568 56.2151C129.766 56.2151 133.499 51.4832 133.499 43.6189V43.5744C133.499 35.7768 129.678 30.9782 123.568 30.9782C120.103 30.9782 117.503 32.5333 116.237 35.1547H115.837V31.3781H109.35ZM126.901 43.6189C126.901 48.1064 124.768 50.839 121.347 50.839C117.948 50.839 115.771 48.1064 115.771 43.6189V43.5744C115.771 39.0869 117.925 36.3544 121.347 36.3544C124.79 36.3544 126.901 39.0869 126.901 43.5744V43.6189Z" fill="black"/>
<path d="M91.1423 56.3484C85.6551 56.3484 82.8337 53.0161 82.8337 47.1956V31.3781H89.3206V45.7071C89.3206 49.1728 90.6314 50.9723 93.6971 50.9723C96.8962 50.9723 98.629 48.8173 98.629 45.5072V31.3781H105.116V55.8375H98.629V52.0608H98.2291C97.1183 54.7267 94.6302 56.3484 91.1423 56.3484Z" fill="black"/>
</svg>
