<svg width="103" height="117" viewBox="0 0 103 117" fill="none" xmlns="http://www.w3.org/2000/svg">
<path d="M54.4586 3.97586L75.9475 16.1558L97.24 28.6757C99.0585 29.745 100.182 31.6907 100.199 33.8002L100.395 58.5L100.199 83.1998C100.182 85.3093 99.0585 87.255 97.24 88.3243L75.9476 100.844L54.4586 113.024C52.6234 114.064 50.3766 114.064 48.5414 113.024L27.0524 100.844L5.76001 88.3243C3.94153 87.255 2.81818 85.3093 2.80141 83.1998L2.60506 58.5L2.80141 33.8002C2.81818 31.6907 3.94153 29.745 5.76001 28.6757L27.0525 16.1558L48.5414 3.97586C50.3766 2.93564 52.6234 2.93564 54.4586 3.97586Z" fill="url(#paint0_linear_2272_656)" stroke="url(#paint1_linear_2272_656)" stroke-width="4"/>
<g filter="url(#filter0_i_2272_656)">
<path d="M62.5484 66.2773C66.6739 63.0387 83.5301 66.2773 83.5301 66.2773C69.3824 45.3395 51.4906 21.0273 51.4906 21.0273C51.4906 21.0273 33.6065 45.3447 19.46 66.2773C19.46 66.2773 36.3085 63.0387 40.434 66.2773C49.5914 73.4682 51.4944 111.527 51.4944 111.527C51.4944 111.527 53.3898 73.4695 62.5484 66.2773Z" fill="white"/>
</g>
<path d="M51.4944 111.527C51.5758 111.531 51.613 111.533 51.63 111.534C51.6443 111.535 51.6443 111.535 51.6443 111.534L51.6443 111.533L51.6446 111.528L51.6456 111.507L51.6499 111.426C51.6538 111.354 51.6597 111.247 51.6677 111.107C51.6838 110.827 51.7086 110.415 51.7434 109.888C51.8131 108.834 51.9228 107.32 52.0831 105.481C52.4037 101.803 52.9265 96.8248 53.7351 91.6224C54.5439 86.4192 55.638 80.9963 57.1003 76.4276C57.8314 74.1433 58.6534 72.0759 59.576 70.3576C60.4993 68.638 61.5188 67.2765 62.641 66.3953C63.134 66.0083 63.8265 65.7115 64.672 65.4927C65.516 65.2744 66.5031 65.1362 67.5777 65.0607C69.7271 64.9097 72.2122 65.0102 74.5735 65.2123C76.934 65.4144 79.1665 65.7175 80.8091 65.9702C81.6303 66.0965 82.3038 66.2102 82.7719 66.2923C83.0059 66.3333 83.1886 66.3664 83.3127 66.3893C83.3747 66.4007 83.4221 66.4096 83.4539 66.4156L83.4899 66.4224L83.4989 66.4241L83.5011 66.4245L83.5017 66.4246C83.5018 66.4246 83.5018 66.4246 83.5134 66.3644L83.5018 66.4247L83.8568 66.4928L83.6544 66.1934C76.5794 55.7228 68.5686 44.4089 62.3268 35.7132C59.2059 31.3652 56.5271 27.6716 54.6285 25.065C53.6792 23.7616 52.9249 22.73 52.408 22.0243C52.1495 21.6714 51.9504 21.3999 51.8159 21.2167L51.6632 21.0089L51.6244 20.9562L51.6147 20.9429L51.6122 20.9396L51.6116 20.9387C51.6114 20.9385 51.6114 20.9384 51.4906 21.0273M51.4944 111.527C51.3446 111.535 51.3446 111.535 51.3446 111.534L51.3445 111.533L51.3443 111.528L51.3432 111.507L51.3389 111.426C51.335 111.354 51.3292 111.247 51.3211 111.107C51.3049 110.827 51.28 110.415 51.2451 109.888C51.1752 108.834 51.0652 107.32 50.9046 105.481C50.5833 101.803 50.0596 96.8245 49.25 91.622C48.4403 86.4186 47.3454 80.9957 45.8826 76.427C45.1512 74.1428 44.329 72.0754 43.4063 70.3572C42.4829 68.6377 41.4634 67.2764 40.3414 66.3953C39.8484 66.0083 39.156 65.7114 38.3108 65.4927C37.467 65.2744 36.4801 65.1362 35.4059 65.0607C33.2573 64.9097 30.7732 65.0102 28.4128 65.2123C26.0532 65.4144 23.8218 65.7175 22.1799 65.9702C21.359 66.0965 20.6858 66.2102 20.218 66.2923C19.984 66.3333 19.8014 66.3664 19.6774 66.3893C19.6154 66.4007 19.5681 66.4096 19.5362 66.4156L19.5003 66.4224L19.4913 66.4241L19.489 66.4245L19.4885 66.4246C19.4884 66.4246 19.4883 66.4246 19.46 66.2773L19.4883 66.4246L19.1333 66.4929L19.3357 66.1934C26.4101 55.7253 34.4187 44.4116 40.6583 35.7152C43.7782 31.3669 46.456 27.6728 48.3539 25.0657C49.3028 23.7622 50.0567 22.7304 50.5734 22.0245C50.8318 21.6716 51.0309 21.4001 51.1653 21.2168L51.3179 21.0089L51.3567 20.9562L51.3664 20.9429L51.3689 20.9396L51.3695 20.9388C51.3697 20.9386 51.3697 20.9385 51.4906 21.0273M51.4944 111.527L51.6443 111.535L51.3446 111.535L51.4944 111.527ZM51.4906 21.0273L51.3697 20.9385L51.4905 20.7742L51.6114 20.9384L51.4906 21.0273Z" stroke="#2FA802" stroke-width="0.3"/>
<defs>
<filter id="filter0_i_2272_656" x="18.8066" y="20.521" width="65.3769" height="92.0215" filterUnits="userSpaceOnUse" color-interpolation-filters="sRGB">
<feFlood flood-opacity="0" result="BackgroundImageFix"/>
<feBlend mode="normal" in="SourceGraphic" in2="BackgroundImageFix" result="shape"/>
<feColorMatrix in="SourceAlpha" type="matrix" values="0 0 0 0 0 0 0 0 0 0 0 0 0 0 0 0 0 0 127 0" result="hardAlpha"/>
<feOffset dy="1"/>
<feGaussianBlur stdDeviation="1"/>
<feComposite in2="hardAlpha" operator="arithmetic" k2="-1" k3="1"/>
<feColorMatrix type="matrix" values="0 0 0 0 0.212114 0 0 0 0 0.455257 0 0 0 0 0.0632129 0 0 0 0.6 0"/>
<feBlend mode="normal" in2="shape" result="effect1_innerShadow_2272_656"/>
</filter>
<linearGradient id="paint0_linear_2272_656" x1="52" y1="-4.49566e-07" x2="52" y2="111" gradientUnits="userSpaceOnUse">
<stop stop-color="#42FF00"/>
<stop offset="1" stop-color="#184702"/>
</linearGradient>
<linearGradient id="paint1_linear_2272_656" x1="51.5" y1="0" x2="52" y2="117" gradientUnits="userSpaceOnUse">
<stop stop-color="#A8FF73"/>
<stop offset="1" stop-color="white"/>
</linearGradient>
</defs>
</svg>
