<svg width="103" height="117" viewBox="0 0 103 117" fill="none" xmlns="http://www.w3.org/2000/svg">
<path d="M54.4586 3.97586L75.9475 16.1558L97.24 28.6757C99.0585 29.745 100.182 31.6907 100.199 33.8002L100.395 58.5L100.199 83.1998C100.182 85.3093 99.0585 87.255 97.24 88.3243L75.9476 100.844L54.4586 113.024C52.6234 114.064 50.3766 114.064 48.5414 113.024L27.0524 100.844L5.76001 88.3243C3.94153 87.255 2.81818 85.3093 2.80141 83.1998L2.60506 58.5L2.80141 33.8002C2.81818 31.6907 3.94153 29.745 5.76001 28.6757L27.0525 16.1558L48.5414 3.97586C50.3766 2.93564 52.6234 2.93564 54.4586 3.97586Z" fill="url(#paint0_linear_2272_659)" stroke="url(#paint1_linear_2272_659)" stroke-width="4"/>
<mask id="path-2-outside-1_2272_659" maskUnits="userSpaceOnUse" x="21" y="43" width="65" height="35" fill="black">
<rect fill="white" x="21" y="43" width="65" height="35"/>
<path d="M35.626 72.0195C37.6768 72.0195 39.3288 71.3929 40.582 70.1396C41.8516 68.8864 42.4863 67.1204 42.4863 64.8418V43.6748H49.0781V65.7451C49.0781 68.0889 48.541 70.1559 47.4668 71.9463C46.3926 73.7367 44.8464 75.1364 42.8281 76.1455C40.8262 77.1383 38.4255 77.6348 35.626 77.6348C32.8265 77.6348 30.4176 77.1383 28.3994 76.1455C26.3812 75.1364 24.835 73.7367 23.7607 71.9463C22.6865 70.1559 22.1494 68.0889 22.1494 65.7451V43.6748H28.7412V64.8418C28.7412 67.1367 29.3678 68.9108 30.6211 70.1641C31.8906 71.401 33.5589 72.0195 35.626 72.0195ZM65.6221 43.6748C68.0146 43.6748 70.0492 44.1712 71.7256 45.1641C73.402 46.1406 74.6797 47.4671 75.5586 49.1436C76.4375 50.8037 76.877 52.6836 76.877 54.7832C76.877 56.8991 76.4294 58.7871 75.5342 60.4473C74.6553 62.1074 73.3695 63.4176 71.6768 64.3779C70.0003 65.3382 67.9577 65.8184 65.5488 65.8184H58.8838V77H52.292V43.6748H65.6221ZM70.1631 54.7832C70.1631 52.8952 69.6504 51.4466 68.625 50.4375C67.5996 49.4284 66.1755 48.9238 64.3525 48.9238H58.8594V60.6426H62.8145C64.3444 60.6426 65.6546 60.4717 66.7451 60.1299C67.8519 59.7718 68.6982 59.1696 69.2842 58.3232C69.8701 57.4606 70.1631 56.2806 70.1631 54.7832ZM77.6006 74.0459C77.6006 73.0205 77.9587 72.1904 78.6748 71.5557C79.4072 70.9209 80.278 70.6035 81.2871 70.6035C82.3125 70.6035 83.1833 70.9209 83.8994 71.5557C84.6318 72.1904 84.998 73.0205 84.998 74.0459C84.998 75.055 84.6318 75.8851 83.8994 76.5361C83.1833 77.1709 82.3125 77.4883 81.2871 77.4883C80.278 77.4883 79.4072 77.1709 78.6748 76.5361C77.9587 75.8851 77.6006 75.055 77.6006 74.0459ZM77.7715 43.6748H84.8516L84.0703 66.8682H78.5039L77.7715 43.6748Z"/>
</mask>
<g filter="url(#filter0_i_2272_659)">
<path d="M35.626 72.0195C37.6768 72.0195 39.3288 71.3929 40.582 70.1396C41.8516 68.8864 42.4863 67.1204 42.4863 64.8418V43.6748H49.0781V65.7451C49.0781 68.0889 48.541 70.1559 47.4668 71.9463C46.3926 73.7367 44.8464 75.1364 42.8281 76.1455C40.8262 77.1383 38.4255 77.6348 35.626 77.6348C32.8265 77.6348 30.4176 77.1383 28.3994 76.1455C26.3812 75.1364 24.835 73.7367 23.7607 71.9463C22.6865 70.1559 22.1494 68.0889 22.1494 65.7451V43.6748H28.7412V64.8418C28.7412 67.1367 29.3678 68.9108 30.6211 70.1641C31.8906 71.401 33.5589 72.0195 35.626 72.0195ZM65.6221 43.6748C68.0146 43.6748 70.0492 44.1712 71.7256 45.1641C73.402 46.1406 74.6797 47.4671 75.5586 49.1436C76.4375 50.8037 76.877 52.6836 76.877 54.7832C76.877 56.8991 76.4294 58.7871 75.5342 60.4473C74.6553 62.1074 73.3695 63.4176 71.6768 64.3779C70.0003 65.3382 67.9577 65.8184 65.5488 65.8184H58.8838V77H52.292V43.6748H65.6221ZM70.1631 54.7832C70.1631 52.8952 69.6504 51.4466 68.625 50.4375C67.5996 49.4284 66.1755 48.9238 64.3525 48.9238H58.8594V60.6426H62.8145C64.3444 60.6426 65.6546 60.4717 66.7451 60.1299C67.8519 59.7718 68.6982 59.1696 69.2842 58.3232C69.8701 57.4606 70.1631 56.2806 70.1631 54.7832ZM77.6006 74.0459C77.6006 73.0205 77.9587 72.1904 78.6748 71.5557C79.4072 70.9209 80.278 70.6035 81.2871 70.6035C82.3125 70.6035 83.1833 70.9209 83.8994 71.5557C84.6318 72.1904 84.998 73.0205 84.998 74.0459C84.998 75.055 84.6318 75.8851 83.8994 76.5361C83.1833 77.1709 82.3125 77.4883 81.2871 77.4883C80.278 77.4883 79.4072 77.1709 78.6748 76.5361C77.9587 75.8851 77.6006 75.055 77.6006 74.0459ZM77.7715 43.6748H84.8516L84.0703 66.8682H78.5039L77.7715 43.6748Z" fill="white"/>
</g>
<path d="M40.582 70.1396L40.3713 69.9261L40.3699 69.9275L40.582 70.1396ZM42.4863 43.6748V43.3748H42.1863V43.6748H42.4863ZM49.0781 43.6748H49.3781V43.3748H49.0781V43.6748ZM47.4668 71.9463L47.2095 71.7919L47.4668 71.9463ZM42.8281 76.1455L42.9614 76.4143L42.9623 76.4138L42.8281 76.1455ZM28.3994 76.1455L28.2652 76.4138L28.267 76.4147L28.3994 76.1455ZM22.1494 43.6748V43.3748H21.8494V43.6748H22.1494ZM28.7412 43.6748H29.0412V43.3748H28.7412V43.6748ZM30.6211 70.1641L30.4089 70.3762L30.4117 70.3789L30.6211 70.1641ZM35.626 72.3195C37.7428 72.3195 39.4758 71.6702 40.7942 70.3518L40.3699 69.9275C39.1818 71.1156 37.6107 71.7195 35.626 71.7195V72.3195ZM40.7928 70.3531C42.1342 69.029 42.7863 67.1773 42.7863 64.8418H42.1863C42.1863 67.0636 41.569 68.7438 40.3713 69.9262L40.7928 70.3531ZM42.7863 64.8418V43.6748H42.1863V64.8418H42.7863ZM42.4863 43.9748H49.0781V43.3748H42.4863V43.9748ZM48.7781 43.6748V65.7451H49.3781V43.6748H48.7781ZM48.7781 65.7451C48.7781 68.0413 48.2525 70.0537 47.2095 71.7919L47.724 72.1006C48.8296 70.2581 49.3781 68.1364 49.3781 65.7451H48.7781ZM47.2095 71.7919C46.1671 73.5294 44.6654 74.8914 42.694 75.8772L42.9623 76.4138C45.0273 75.3814 46.6181 73.9439 47.724 72.1006L47.2095 71.7919ZM42.6948 75.8767C40.7434 76.8445 38.3906 77.3348 35.626 77.3348V77.9348C38.4603 77.9348 40.9089 77.4322 42.9614 76.4143L42.6948 75.8767ZM35.626 77.3348C32.8614 77.3348 30.5 76.8445 28.5318 75.8763L28.267 76.4147C30.3353 77.4322 32.7916 77.9348 35.626 77.9348V77.3348ZM28.5336 75.8772C26.5621 74.8914 25.0605 73.5294 24.018 71.7919L23.5035 72.1006C24.6094 73.9439 26.2003 75.3814 28.2652 76.4138L28.5336 75.8772ZM24.018 71.7919C22.9751 70.0537 22.4494 68.0413 22.4494 65.7451H21.8494C21.8494 68.1364 22.398 70.2581 23.5035 72.1006L24.018 71.7919ZM22.4494 65.7451V43.6748H21.8494V65.7451H22.4494ZM22.1494 43.9748H28.7412V43.3748H22.1494V43.9748ZM28.4412 43.6748V64.8418H29.0412V43.6748H28.4412ZM28.4412 64.8418C28.4412 67.1918 29.0842 69.0515 30.409 70.3762L30.8332 69.9519C29.6515 68.7702 29.0412 67.0816 29.0412 64.8418H28.4412ZM30.4117 70.3789C31.7466 71.6795 33.4947 72.3195 35.626 72.3195V71.7195C33.6232 71.7195 32.0347 71.1226 30.8305 69.9492L30.4117 70.3789ZM71.7256 45.1641L71.5727 45.4222L71.5746 45.4233L71.7256 45.1641ZM75.5586 49.1436L75.2929 49.2829L75.2935 49.2839L75.5586 49.1436ZM75.5342 60.4473L75.2701 60.3049L75.269 60.3069L75.5342 60.4473ZM71.6768 64.3779L71.5287 64.117L71.5276 64.1176L71.6768 64.3779ZM58.8838 65.8184V65.5184H58.5838V65.8184H58.8838ZM58.8838 77V77.3H59.1838V77H58.8838ZM52.292 77H51.992V77.3H52.292V77ZM52.292 43.6748V43.3748H51.992V43.6748H52.292ZM58.8594 48.9238V48.6238H58.5594V48.9238H58.8594ZM58.8594 60.6426H58.5594V60.9426H58.8594V60.6426ZM66.7451 60.1299L66.8348 60.4162L66.8375 60.4153L66.7451 60.1299ZM69.2842 58.3232L69.5308 58.494L69.5323 58.4918L69.2842 58.3232ZM65.6221 43.9748C67.9731 43.9748 69.9521 44.4624 71.5727 45.4222L71.8785 44.9059C70.1463 43.8801 68.0562 43.3748 65.6221 43.3748V43.9748ZM71.5746 45.4233C73.2036 46.3722 74.4409 47.6577 75.2929 49.2829L75.8243 49.0043C74.9185 47.2766 73.6005 45.909 71.8766 44.9048L71.5746 45.4233ZM75.2935 49.2839C76.1469 50.8959 76.577 52.7267 76.577 54.7832H77.177C77.177 52.6405 76.7281 50.7115 75.8237 49.0032L75.2935 49.2839ZM76.577 54.7832C76.577 56.8555 76.139 58.6936 75.2701 60.3049L75.7982 60.5896C76.7198 58.8806 77.177 56.9426 77.177 54.7832H76.577ZM75.269 60.3069C74.4179 61.9146 73.1736 63.1838 71.5287 64.117L71.8248 64.6389C73.5653 63.6514 74.8927 62.3002 75.7993 60.5876L75.269 60.3069ZM71.5276 64.1176C69.9065 65.0462 67.9181 65.5184 65.5488 65.5184V66.1184C67.9972 66.1184 70.0941 65.6302 71.8259 64.6382L71.5276 64.1176ZM65.5488 65.5184H58.8838V66.1184H65.5488V65.5184ZM58.5838 65.8184V77H59.1838V65.8184H58.5838ZM58.8838 76.7H52.292V77.3H58.8838V76.7ZM52.592 77V43.6748H51.992V77H52.592ZM52.292 43.9748H65.6221V43.3748H52.292V43.9748ZM70.4631 54.7832C70.4631 52.8409 69.9344 51.3052 68.8354 50.2237L68.4146 50.6513C69.3664 51.588 69.8631 52.9494 69.8631 54.7832H70.4631ZM68.8354 50.2237C67.7399 49.1456 66.2321 48.6238 64.3525 48.6238V49.2238C66.1188 49.2238 67.4593 49.7112 68.4146 50.6513L68.8354 50.2237ZM64.3525 48.6238H58.8594V49.2238H64.3525V48.6238ZM58.5594 48.9238V60.6426H59.1594V48.9238H58.5594ZM58.8594 60.9426H62.8145V60.3426H58.8594V60.9426ZM62.8145 60.9426C64.3652 60.9426 65.7074 60.7695 66.8348 60.4162L66.6554 59.8436C65.6019 60.1738 64.3236 60.3426 62.8145 60.3426V60.9426ZM66.8375 60.4153C67.9983 60.0397 68.9026 59.4014 69.5308 58.494L69.0375 58.1525C68.4939 58.9378 67.7055 59.5039 66.6528 59.8444L66.8375 60.4153ZM69.5323 58.4918C70.1638 57.5621 70.4631 56.3157 70.4631 54.7832H69.8631C69.8631 56.2455 69.5764 57.3591 69.036 58.1547L69.5323 58.4918ZM78.6748 71.5557L78.4783 71.3289L78.4758 71.3312L78.6748 71.5557ZM83.8994 71.5557L83.7004 71.7802L83.7029 71.7824L83.8994 71.5557ZM83.8994 76.5361L84.0984 76.7606L84.0987 76.7604L83.8994 76.5361ZM78.6748 76.5361L78.4729 76.7582L78.4783 76.7628L78.6748 76.5361ZM77.7715 43.6748V43.3748H77.4619L77.4716 43.6843L77.7715 43.6748ZM84.8516 43.6748L85.1514 43.6849L85.1618 43.3748H84.8516V43.6748ZM84.0703 66.8682V67.1682H84.3604L84.3701 66.8783L84.0703 66.8682ZM78.5039 66.8682L78.2041 66.8776L78.2132 67.1682H78.5039V66.8682ZM77.9006 74.0459C77.9006 73.0994 78.2269 72.3536 78.8738 71.7802L78.4758 71.3312C77.6904 72.0273 77.3006 72.9416 77.3006 74.0459H77.9006ZM78.8713 71.7824C79.5468 71.197 80.3469 70.9035 81.2871 70.9035V70.3035C80.2091 70.3035 79.2677 70.6448 78.4783 71.329L78.8713 71.7824ZM81.2871 70.9035C82.2449 70.9035 83.0433 71.1977 83.7004 71.7802L84.0984 71.3312C83.3233 70.6441 82.3801 70.3035 81.2871 70.3035V70.9035ZM83.7029 71.7824C84.3654 72.3565 84.698 73.1018 84.698 74.0459H85.298C85.298 72.9392 84.8983 72.0244 84.0959 71.329L83.7029 71.7824ZM84.698 74.0459C84.698 74.9722 84.3663 75.7197 83.7001 76.3119L84.0987 76.7604C84.8973 76.0505 85.298 75.1378 85.298 74.0459H84.698ZM83.7004 76.3116C83.0433 76.8941 82.2449 77.1883 81.2871 77.1883V77.7883C82.3801 77.7883 83.3233 77.4477 84.0984 76.7606L83.7004 76.3116ZM81.2871 77.1883C80.3469 77.1883 79.5468 76.8948 78.8713 76.3094L78.4783 76.7628C79.2677 77.447 80.2091 77.7883 81.2871 77.7883V77.1883ZM78.8766 76.3142C78.226 75.7227 77.9006 74.9746 77.9006 74.0459H77.3006C77.3006 75.1355 77.6914 76.0475 78.473 76.7581L78.8766 76.3142ZM77.7715 43.9748H84.8516V43.3748H77.7715V43.9748ZM84.5517 43.6647L83.7705 66.8581L84.3701 66.8783L85.1514 43.6849L84.5517 43.6647ZM84.0703 66.5682H78.5039V67.1682H84.0703V66.5682ZM78.8038 66.8587L78.0713 43.6653L77.4716 43.6843L78.2041 66.8776L78.8038 66.8587Z" fill="#96ACC2" mask="url(#path-2-outside-1_2272_659)"/>
<defs>
<filter id="filter0_i_2272_659" x="22.1494" y="43.6748" width="62.8486" height="34.96" filterUnits="userSpaceOnUse" color-interpolation-filters="sRGB">
<feFlood flood-opacity="0" result="BackgroundImageFix"/>
<feBlend mode="normal" in="SourceGraphic" in2="BackgroundImageFix" result="shape"/>
<feColorMatrix in="SourceAlpha" type="matrix" values="0 0 0 0 0 0 0 0 0 0 0 0 0 0 0 0 0 0 127 0" result="hardAlpha"/>
<feOffset dy="1"/>
<feGaussianBlur stdDeviation="1"/>
<feComposite in2="hardAlpha" operator="arithmetic" k2="-1" k3="1"/>
<feColorMatrix type="matrix" values="0 0 0 0 0.357788 0 0 0 0 0.470444 0 0 0 0 0.570101 0 0 0 0.6 0"/>
<feBlend mode="normal" in2="shape" result="effect1_innerShadow_2272_659"/>
</filter>
<linearGradient id="paint0_linear_2272_659" x1="52" y1="116" x2="52" y2="1.14375e-06" gradientUnits="userSpaceOnUse">
<stop stop-color="#546C81"/>
<stop offset="1" stop-color="#E1F2FF"/>
</linearGradient>
<linearGradient id="paint1_linear_2272_659" x1="51.5" y1="0" x2="51.5" y2="117" gradientUnits="userSpaceOnUse">
<stop stop-color="#5B758D"/>
<stop offset="1" stop-color="#C5D5E1"/>
</linearGradient>
</defs>
</svg>
